<?xml version="1.0" standalone="no"?>
<!DOCTYPE svg PUBLIC "-//W3C//DTD SVG 20010904//EN"
 "http://www.w3.org/TR/2001/REC-SVG-20010904/DTD/svg10.dtd">
<svg version="1.0" xmlns="http://www.w3.org/2000/svg"
 width="700.000000pt" height="700.000000pt" viewBox="0 0 700.000000 700.000000"
 preserveAspectRatio="xMidYMid meet">
<metadata>
Created by potrace 1.14, written by Peter Selinger 2001-2017
</metadata>
<g transform="translate(0.000000,700.000000) scale(0.100000,-0.100000)"
fill="#000000" stroke="none">
<path d="M3278 6996 c-1 -2 -42 -6 -89 -10 -47 -4 -95 -8 -105 -10 -10 -2 -46
-7 -79 -11 -59 -7 -79 -10 -125 -20 -34 -7 -69 -14 -105 -21 -68 -12 -238 -58
-354 -96 -1085 -352 -1933 -1214 -2270 -2308 -54 -178 -105 -422 -127 -605
-27 -235 -26 -636 1 -832 10 -67 14 -99 20 -148 4 -27 10 -66 15 -85 5 -19 12
-48 14 -65 67 -377 267 -852 511 -1218 119 -179 313 -417 431 -531 174 -167
277 -256 414 -357 124 -90 176 -124 341 -219 252 -145 473 -238 799 -335 39
-11 154 -39 215 -51 135 -27 153 -30 224 -40 25 -3 57 -8 71 -10 163 -25 682
-25 842 1 13 2 46 7 73 10 71 10 87 13 115 18 14 3 43 8 65 12 149 26 527 139
645 193 25 11 79 35 120 53 214 92 510 271 715 433 147 116 344 300 450 420
448 508 730 1090 844 1746 11 63 23 142 26 175 4 33 9 71 11 85 9 47 11 525 3
605 -15 165 -21 220 -24 225 -2 3 -6 30 -10 60 -7 55 -58 298 -75 355 -97 328
-204 584 -350 836 -52 89 -201 316 -227 344 -10 11 -31 38 -48 60 -16 22 -39
51 -51 65 -12 14 -41 48 -64 75 -158 187 -431 433 -625 565 -27 18 -52 36 -55
39 -3 3 -14 12 -25 18 -187 115 -246 149 -335 195 -311 161 -738 302 -1040
343 -19 3 -46 7 -60 10 -13 2 -52 7 -86 11 -33 3 -74 8 -90 10 -33 5 -540 14
-546 10z m472 -380 c19 -3 49 -9 65 -12 17 -3 43 -8 59 -11 59 -10 168 -52
216 -83 108 -70 124 -148 43 -221 -50 -46 -97 -68 -254 -120 -332 -109 -575
-255 -804 -484 -250 -248 -415 -568 -459 -885 -27 -198 -26 -426 4 -600 5 -30
12 -69 14 -85 12 -71 56 -227 91 -320 131 -352 379 -686 720 -971 39 -32 72
-61 75 -64 3 -3 23 -19 45 -36 131 -100 183 -139 300 -223 341 -246 386 -282
490 -386 291 -291 259 -723 -80 -1066 -71 -72 -188 -160 -277 -207 -211 -114
-570 -168 -908 -138 -127 11 -155 15 -254 36 -28 6 -61 12 -73 14 -80 16 -302
86 -432 137 -98 39 -324 153 -426 215 -334 204 -642 475 -865 764 -19 25 -37
47 -41 50 -3 3 -46 66 -96 141 -161 245 -287 522 -361 794 -21 77 -23 85 -28
112 -3 16 -10 48 -15 72 -5 24 -12 65 -15 90 -3 25 -7 48 -9 52 -7 10 -19 238
-19 339 2 547 143 1092 402 1555 50 90 177 293 191 305 4 3 26 32 51 65 24 33
49 65 55 71 5 7 26 31 45 55 49 61 272 285 350 351 117 98 331 252 400 286 14
7 41 22 60 33 60 37 241 126 330 162 221 91 485 164 700 192 25 3 52 8 60 10
8 2 56 7 105 11 50 3 91 8 93 9 6 6 416 -3 452 -9z m1770 -1260 c47 -3 94 -7
105 -9 11 -3 38 -8 60 -12 22 -5 42 -9 45 -10 3 -1 22 -5 43 -9 20 -5 40 -12
43 -17 3 -5 12 -9 20 -9 22 0 102 -39 174 -85 81 -51 171 -141 222 -220 77
-119 194 -381 253 -565 35 -112 82 -294 90 -350 3 -25 8 -52 10 -60 2 -8 7
-35 10 -60 3 -25 8 -56 10 -70 14 -92 19 -181 19 -370 0 -192 -9 -394 -19
-410 -2 -3 -6 -28 -9 -56 -4 -27 -11 -71 -16 -99 -6 -27 -12 -61 -15 -75 -11
-60 -19 -91 -47 -195 -39 -144 -128 -414 -139 -421 -5 -3 -9 3 -10 13 -4 106
-136 271 -319 400 -74 52 -316 203 -325 203 -2 0 -34 17 -72 38 -37 22 -125
69 -195 105 -71 37 -185 97 -255 134 -494 258 -660 382 -849 636 -232 312
-297 619 -187 881 85 206 301 414 560 540 173 85 373 138 576 152 51 4 93 8
95 9 2 2 11 1 20 -1 9 -2 55 -5 102 -8z"/>
</g>
</svg>
