<?xml version="1.0" standalone="no"?>
<!DOCTYPE svg PUBLIC "-//W3C//DTD SVG 20010904//EN"
 "http://www.w3.org/TR/2001/REC-SVG-20010904/DTD/svg10.dtd">
<svg version="1.0" xmlns="http://www.w3.org/2000/svg"
 width="700.000000pt" height="700.000000pt" viewBox="0 0 700.000000 700.000000"
 preserveAspectRatio="xMidYMid meet">
<metadata>
Created by potrace 1.11, written by Peter Selinger 2001-2013
</metadata>
<g transform="translate(0.000000,700.000000) scale(0.100000,-0.100000)"
fill="#000000" stroke="none">
<path d="M5080 4864 c-193 -39 -337 -168 -419 -375 -62 -156 -62 -155 -64
-1305 -1 -574 0 -1045 3 -1045 3 -1 170 -2 373 -3 322 -1 367 0 368 14 0 8 1
325 1 703 0 379 4 685 8 680 3 -4 75 -181 160 -393 173 -436 238 -578 305
-668 162 -220 328 -320 560 -336 107 -8 280 57 373 140 104 92 187 247 207
384 3 25 9 54 12 65 8 24 11 2123 3 2134 -3 4 -170 7 -372 7 l-368 0 -2 -754
-3 -755 -124 309 c-68 170 -130 323 -137 339 -7 17 -41 100 -75 185 -107 269
-168 371 -293 495 -156 154 -333 215 -516 179z"/>
<path d="M26 4860 c-1 -3 -1 -385 -1 -850 2 -754 4 -855 19 -935 75 -394 329
-692 717 -845 233 -92 539 -113 812 -55 142 30 352 125 467 211 l71 54 57 -43
c230 -176 497 -259 807 -253 83 2 160 6 171 9 12 3 39 8 60 12 22 4 44 8 49 9
237 60 418 159 575 316 180 179 284 396 316 663 4 29 7 426 8 882 l1 830 -372
1 -373 0 0 -814 c0 -897 1 -887 -62 -984 -72 -113 -217 -180 -393 -181 -138
-1 -259 37 -345 110 -48 40 -96 120 -109 181 -8 37 -11 299 -11 870 l0 818
-372 -1 -373 0 -1 -825 c0 -774 -1 -828 -18 -880 -22 -65 -47 -103 -95 -148
-149 -136 -434 -167 -640 -70 -122 58 -189 142 -217 271 -1 4 -2 377 -3 830
l-1 823 -371 0 c-204 0 -372 -3 -373 -6z"/>
</g>
</svg>
